<?xml version="1.0" encoding="utf-8"?>
<!-- Generator: Adobe Illustrator 27.0.1, SVG Export Plug-In . SVG Version: 6.00 Build 0)  -->
<svg version="1.1" id="Layer_2_00000078038884841300413090000013734238230547492499_"
	 xmlns="http://www.w3.org/2000/svg" xmlns:xlink="http://www.w3.org/1999/xlink" x="0px" y="0px" viewBox="0 0 295.5 221.3"
	 style="enable-background:new 0 0 295.5 221.3;" xml:space="preserve">
<style type="text/css">
	.st0{fill:#E72C70;}
	.st1{fill:#F7F249;}
	.st2{fill:#EC2C70;}
</style>
<g id="Layer_1-2">
	<g>
		<path class="st0" d="M184.1,0.1c20.1-0.2,42,3.1,62.5,13.2c28.5,14,44.7,37,48.3,68.6c3.7,32.6-8.2,60.6-27.3,85.8
			c-20.7,27.4-49,43.2-82.5,49.2c-34.3,6.1-68.6,6.5-102.5-2.9C58,207.2,36,195.8,20,175.3c-25.6-32.8-27.9-73.2,0.3-107.8
			C35.9,48.3,56,35.3,78.1,24.9C111.9,9.1,150.4-0.1,184.1,0.1z M186.6,115.7c0.2-13.8,1.3-14.7,15-12.3c0.2,0,0.3,0.1,0.5,0.1
			c3.2,1.4,4.6-0.4,5.6-3.1c1.1-3-0.6-4.3-3.1-5.2c-4.3-1.6-8.7-2.2-13.2-2.6c-1.9-0.2-3.7-0.3-3.5-3c0.3-4.2-2.8-4.2-5.7-4.5
			c-3.6-0.4-3.5,2.2-3.7,4.5c-0.3,5.2-1,4.4-3.8,4.2c-3.5,0.2-2.4-3.1-2.6-4.7c-0.5-5.1-1.3-6.5-6.2-5.9c-5.3,0.6-3.6,4.4-2.9,7.4
			c1.1,4.6-1.2,6.3-5.6,7c-7.1,1.1-14,3-21,4.1c-8.9,1.4-17.9,2.5-26.7-0.5c-5-1.7-9-4.6-9.8-10.2c-0.8-5.9,3.2-8.8,7.8-10.8
			c2.6-1.1,3.4-2.7,3.1-5.4c-0.4-4.5-0.7-9-0.7-13.4c0-3.7-1.9-5.1-5.2-5.1c-8.7,0-16.4,2.8-22.8,8.7c-3.2,3-5.4,6.7-6.2,11.2
			C73,93.1,82.3,109,98.6,114.3c16.5,5.4,32.8,4.2,48.9-1.9c4-1.5,8.2-2.8,12.2-4.3c2.7-1,4.7-1.4,4.7,2.3c0,3.6,0.4,7.7,0.8,11.3
			c1.4,13.9,3.2,27.4,8.7,40.5c3.2,7.5,6.8,14.5,14.6,18c2.1,1,4.2,1.4,5.9-0.6c2.7-3.2,5.3-6.4,6.4-10.6c0.8-2.8,0.4-4.2-2.8-4.8
			c-10.8-2.1-16.8-9.5-20.1-19.4c-2.7-8.1-3.2-16.6-4-25.1c-0.4-4-0.6-8-0.9-11.9c-0.1-2,0.5-3.3,2.7-3.3c2.4,0,1.9,1.8,1.9,3.2
			c0.1,5.2,0,10.3,0.2,15.5c0.4,8.1,2.5,15.7,6.3,22.9c5.7,10.8,15.4,14.6,26.9,15.1c3.6,0.1,5.8-3.8,5.9-9.4c0.1-4.9-3.4-3.1-5.6-3
			c-11.7,0.2-18.3-4.2-22.5-15.2C186.7,127.7,186.5,121.7,186.6,115.7z M116.7,61.8c0.3,8,5.6,16.6,15.8,22.1
			c5.9,3.2,9,2.2,12.6-3.2c2.1-3.2,3.9-6.6,5.8-9.9c1.3-2.3,1.3-4.2-1.1-6.1c-2.9-2.2-4.4-5.4-5.3-8.9c-1.6-6.1,2.2-10.2,8.4-9.1
			c3.9,0.7,7.1,2.7,10.2,5.1c8.4,6.6,15.2,14.9,23,22.1S202,87.7,213,89.3c2.4,0.4,2.8,1.8,2.9,3.8c0.3,6.5,0.4,13,1.1,19.4
			c1.2,12.4,2.4,24.9,7.8,36.4c1.2,2.6,2.1,5.3,6.2,3.3c3.6-1.7,4.7-3.6,2.9-7.3c-7.8-16.2-8.7-33.6-9.3-51.1
			c-0.1-3.1,0.8-4.7,4-5.7c10.7-3.2,15.8-11,17.1-21.7c0.7-5.5-2.5-11.2-7.1-13.2s-9.9-0.5-13.9,3.9c-4.3,4.7-6.1,10.6-7.4,16.7
			c-1.9,8.6-2.7,8.9-10.4,4.4c-0.9-0.5-1.6-1.1-2.4-1.7c-9.5-6.8-16.3-16.1-23.5-25c-4.8-6-9.9-11.8-16.3-16.1
			c-7.3-4.9-15-9-24.2-7.5C126.4,30.1,116.9,42.4,116.7,61.8L116.7,61.8z M37.8,163.4L37.8,163.4c0.1,3.8,0.2,7.7,0.1,11.5
			c-0.1,2.8,1.2,3.8,3.7,4.3c16,3.2,29.5-2.5,37.8-16.7c7.7-13.1,8.7-27.4,5.7-42c-3.7-18.2-17-27.8-35.4-26.4
			c-11.1,0.9-20,7.9-23,18.4c-2.7,9.7,0,22,9.6,27c2.3,1.2,2.6,3.1,2.5,5.4C38.4,151.1,38.1,157.2,37.8,163.4L37.8,163.4z
			 M124.9,141.1c0.4-1.9-0.5-4.8,2.6-5c2.7-0.1,2.6,2.7,2.8,4.5c0.7,4.8,0.9,9.6,1.7,14.3c1.5,8.8,4.6,16.6,14.1,20.2
			c4.5,1.7,7.7,0.6,10.3-3.2c1.8-2.6,1.5-3-2.8-3.6c-8.1-1.2-11.1-6.6-12.9-14.7c-1.7-7.6-1-15.6-3.5-23.1
			c-2.1-6.4-7.3-7.9-12.2-3.4c-1.5,1.4-2.2,2.5-4.3,0.8c-1.7-1.4-4.3-1.3-6.1,0.2c-1.6,1.4-0.5,3.4-0.2,5.1
			c1.3,8.7,3.5,17.3,3.4,26.1c0,5.1,1.1,5.7,5.9,3.8c2.7-1.1,2.7-3.2,2.8-5.3C126.7,152.4,125.7,146.8,124.9,141.1L124.9,141.1z
			 M113.7,146.8c-0.5-3.1-0.4-6.5-1.8-9.6c-3.8-8.6-12.2-9.7-18.1-2.5c-5.5,6.8-6.4,21.6-1.6,28.8c4.6,7.1,13.1,6.9,17.5-0.3
			C112.7,158.3,113,152.6,113.7,146.8L113.7,146.8z M163.7,141c-0.6-6.8-0.7-13.1-2-19.3c-0.7-3.4-2.7-4.8-6.1-4
			c-3.7,0.9-2.7,3.4-2.2,5.9c1.5,6.5,2.7,13,2.6,19.7c0,1.5,0,3.2-2,3.5c-1.9,0.2-2.5-1.4-2.9-2.8c-0.4-1.1-0.6-2.2-0.8-3.4
			c-0.8-5.9-1.7-11.8-2.4-17.8c-0.3-2.7-1.7-3.5-4-3c-1.9,0.4-5-0.3-4.6,3.1c0.9,9.2,1.4,18.6,4.7,27.4c1.7,4.5,4.6,7.3,9.8,6.7
			c4.9-0.5,7.7-3.6,8.7-8.6C162.9,145.7,163.5,143.2,163.7,141L163.7,141z M269.9,122.4c0-5.4-0.6-10.2-3.3-14.4
			c-4.4-7.1-13.2-7.4-17.7-0.8c-4.8,7.1-3.9,21,1.8,27.2c5.9,6.4,15.2,4.5,17.9-3.7C269.6,127.9,270.1,125,269.9,122.4L269.9,122.4z
			 M235.2,89c-2.6,0-4.4,0.9-4.3,4c0.1,4.3-0.2,8.7,0.1,13c0.8,13.6,2.3,27.1,8.1,39.7c1.3,2.7,2.7,5.4,5.1,7.3
			c3.5,2.7,5.8-0.3,8.3-2.1c2.8-2.1,0.6-3.6-0.7-5.3c-5.4-6.3-8.9-13.5-10.2-21.8c-1.6-10-1.8-20.2-2.7-30.2
			C238.6,91.4,239,88.7,235.2,89L235.2,89z M190.9,125.3c-0.2,4.5,1.1,8.6,3.9,12.1c5.1,6.3,16.9,6,20.9-0.4c1.6-2.6,1-4.7-0.9-6.7
			c-2.3-2.4-3.4-0.1-4.7,1.3c-1.2,1.3-2.7,2-4.4,2.3c-3.3,0.5-6.1-1.2-6.4-4.2c-0.1-1-0.3-2.1,0.1-2.4c0.9-0.8,3.3,0.2,4.4-0.2
			c3.4-1.1,8.1,0.4,9.7-3.3c1.6-3.6,0.4-7.6-1.9-10.9c-2.2-3.1-5.5-4.2-9.3-3.5C195.3,110.7,190.9,116.7,190.9,125.3L190.9,125.3z"
			/>
		<path class="st1" d="M186.6,115.7c-0.1,6,0.1,12,2.3,17.7c4.3,11,10.8,15.4,22.5,15.2c2.3,0,5.7-1.9,5.6,3
			c-0.1,5.6-2.3,9.5-5.9,9.4c-11.5-0.5-21.2-4.2-26.9-15.1c-3.8-7.2-5.9-14.8-6.3-22.9c-0.3-5.1-0.1-10.3-0.2-15.5
			c0-1.4,0.5-3.3-1.9-3.2c-2.2,0-2.9,1.4-2.7,3.3c0.3,4,0.5,8,0.9,11.9c0.8,8.4,1.3,16.9,4,25.1c3.3,9.9,9.3,17.3,20.1,19.4
			c3.2,0.6,3.6,2,2.8,4.8c-1.1,4.2-3.7,7.4-6.4,10.6c-1.7,2-3.8,1.6-5.9,0.6c-7.8-3.5-12.2-10.1-15.4-17.6
			c-5.5-13.1-6.9-27-8.2-40.9c-0.4-3.6-0.9-7.3-0.9-10.9c0-3.7-1.6-3.6-4.3-2.6c-4,1.5-8.2,2.8-12.2,4.3
			c-16.1,6.2-32.4,7.3-48.9,1.9C82.3,108.9,73,93,76,76.1c0.8-4.5,3-8.2,6.2-11.2c6.4-5.9,14.1-8.7,22.8-8.7c3.4,0,5.2,1.4,5.2,5.1
			c0,4.5,0.3,9,0.7,13.4c0.2,2.7-0.6,4.3-3.1,5.4c-4.6,2-8.6,5-7.8,10.8c0.8,5.6,4.8,8.5,9.8,10.2c8.8,3,17.8,1.9,26.7,0.5
			c7.1-1.1,14-3,21-4.1c4.4-0.7,6-2.3,4.9-6.9c-0.7-3-1.8-6.9,3.6-7.5c4.9-0.5,5.9,0.7,6.4,5.8c0.4,3.9-0.9,4.6,2.4,4.8
			c2.8,0.2,3.3,0.2,3.6-4.2c0.3-2.3,0.3-4.9,3.9-4.5c2.9,0.3,6,0.4,5.7,4.5c-0.2,2.7,1.7,2.8,3.5,3c4.5,0.4,8.9,1,13.2,2.6
			c2.5,0.9,4.2,2.2,3.1,5.2c-1,2.6-2.4,4.4-5.6,3.1c-0.2-0.1-0.3-0.1-0.5-0.1C187.9,101,186.8,101.9,186.6,115.7L186.6,115.7z"/>
		<path class="st1" d="M116.7,61.8c0.3-19.4,9.7-31.7,23.8-34c9.2-1.5,16.9,2.5,24.2,7.5c6.4,4.3,11.4,10.1,16.3,16.1
			c7.2,8.9,14,18.3,23.5,25c0.8,0.6,1.6,1.2,2.4,1.7c7.7,4.6,8.5,4.2,10.4-4.4c1.3-6,3.1-11.9,7.4-16.7c4-4.4,9.4-5.9,13.9-3.9
			c4.6,2,7.7,7.7,7.1,13.2c-1.3,10.7-6.4,18.5-17.1,21.7c-3.2,1-4.1,2.5-4,5.7c0.6,17.5,1.5,34.9,9.3,51.1c1.8,3.7,0.7,5.6-2.9,7.3
			c-4.1,2-5-0.8-6.2-3.3c-5.5-11.5-6.6-24-7.8-36.4c-0.6-6.4-0.8-12.9-1.1-19.4c-0.1-2.1-0.5-3.5-2.9-3.8
			c-10.9-1.6-19.1-8.2-26.8-15.4c-7.8-7.2-14.6-15.5-23-22.1c-3-2.4-6.2-4.4-10.2-5.1c-6.2-1.1-10,3-8.4,9.1
			c0.9,3.5,2.4,6.7,5.3,8.9c2.4,1.8,2.4,3.8,1.1,6.1c-1.9,3.3-3.7,6.7-5.8,9.9c-3.6,5.4-6.8,6.4-12.6,3.2
			C122.3,78.4,117,69.8,116.7,61.8L116.7,61.8z M237.3,67.9c-0.4-2.1-0.5-4.5-3-5.3c-2.6-0.8-3.9,1.2-5.1,3
			c-2.7,4.1-3.2,8.9-4.1,13.6c-0.3,1.6,0.7,1.9,2.1,1.6C231.8,80.1,237.4,72.8,237.3,67.9L237.3,67.9z"/>
		<path class="st1" d="M37.8,163.4c0.3-6.1,0.6-12.3,1-18.4c0.2-2.3-0.2-4.2-2.5-5.4c-9.6-5-12.3-17.3-9.6-27
			c2.9-10.5,11.8-17.5,23-18.4c18.4-1.5,31.6,8.1,35.4,26.4c3,14.5,2,28.9-5.7,42c-8.3,14.1-21.7,19.9-37.8,16.7
			c-2.5-0.5-3.8-1.5-3.7-4.3c0.2-3.8,0-7.6,0-11.5C37.9,163.4,37.9,163.4,37.8,163.4L37.8,163.4z M52.7,154.5l0.1,0.7
			c0,2.2-0.2,4.1-0.2,6.3c0,1.1-0.8,2.5,0.3,3.3c1.4,1,2.5-0.4,3.5-1.1c14.3-9.1,20.6-32.6,12.8-47.7c-3.9-7.6-13.8-10.7-21-6.6
			c-3.7,2.1-5.4,7-3.7,10.8c1.5,3.4,4.7,5.1,7.8,3.5c5.9-3.1,7.4,0.1,8.7,4.7c0.5,1.8,1.3,3.4,2,5.1c2.3,6,1.8,8.2-4.6,9.7
			c-4.6,1.1-5.2,2.7-5.5,7.2C53,152,52.8,153,52.7,154.5"/>
		<path class="st1" d="M124.9,141.1c0.8,5.7,1.8,11.3,1.6,17c-0.1,2.1-0.1,4.2-2.8,5.3c-4.7,1.9-5.9,1.3-5.9-3.8
			c0-8.9-2.1-17.5-3.4-26.1c-0.3-1.7-1.4-3.8,0.2-5.1c1.8-1.5,4.4-1.6,6.1-0.2c2.1,1.7,2.8,0.6,4.3-0.8c4.9-4.5,10.1-3,12.2,3.4
			c2.5,7.5,1.8,15.5,3.5,23.1c1.8,8.1,5.7,12.4,13.8,13.6c4.3,0.6,3.7,2.1,1.9,4.7c-2.6,3.8-5.8,4.9-10.3,3.2
			c-9.4-3.5-12.5-11.3-14.1-20.2c-0.8-4.7-1-9.6-1.7-14.3c-0.3-1.8-0.1-4.7-2.8-4.5C124.3,136.2,125.3,139.2,124.9,141.1
			L124.9,141.1z"/>
		<path class="st1" d="M113.7,146.8c-0.6,5.8-1,11.5-4,16.5c-4.4,7.3-12.8,7.4-17.5,0.3c-4.8-7.2-3.9-22,1.6-28.8
			c5.9-7.3,14.3-6.1,18.1,2.5C113.3,140.4,113.1,143.7,113.7,146.8L113.7,146.8z M106,148.6c-0.1-2.5,0.4-5.8-2.7-5.7
			c-3.9,0.1-3.9,4-4.1,6.8c-0.2,2.2-0.3,5.4,2.8,5.3C106.1,155,105.6,151.2,106,148.6z"/>
		<path class="st1" d="M163.7,141c-0.3,2.2-0.4,4.8-0.9,7.4c-0.9,5-4.2,8-9.1,8.5c-5.2,0.6-8.2-2.3-9.8-6.7
			c-3.3-8.8-3.8-18.2-4.7-27.4c-0.3-3.4,2.7-2.7,4.6-3.1c2.3-0.5,3.7,0.3,4,3c0.6,5.9,1.5,11.9,2.4,17.8c0.2,1.1,0.4,2.3,0.8,3.4
			c0.5,1.4,1,3,2.9,2.8c2-0.2,1.9-2,2-3.5c0.2-6.7-1.1-13.2-2.6-19.7c-0.6-2.5-1.6-5,2.2-5.9c3.4-0.8,5.4,0.6,6.1,4
			C163,127.9,163.2,134.2,163.7,141L163.7,141z"/>
		<path class="st1" d="M269.9,122.4c0.2,2.5-0.3,5.5-1.3,8.3c-2.7,8.2-12,10.1-17.9,3.7c-5.7-6.2-6.7-20.1-1.8-27.2
			c4.6-6.7,13.3-6.4,17.7,0.8C269.3,112.3,269.9,117,269.9,122.4L269.9,122.4z M255.8,119.8c0.4,2.4,0.2,5.8,3.6,6
			c2.8,0.1,3.4-2.8,3.2-5.2c-0.1-2.5,0.1-6-3.3-6.3C256,114,255.9,117.2,255.8,119.8L255.8,119.8z"/>
		<path class="st1" d="M235.2,89c3.7-0.3,3.4,2.4,3.6,4.7c0.9,10.1,1.1,20.2,2.7,30.2c1.3,8.3,4.8,15.5,10.2,21.8
			c1.4,1.6,3.6,3.2,0.7,5.3c-2.4,1.8-4.7,4.8-8.3,2.1c-2.5-1.9-3.9-4.6-5.1-7.3c-5.9-12.6-7.3-26.1-8.1-39.7c-0.3-4.3,0-8.6-0.1-13
			C230.8,90,232.6,89,235.2,89L235.2,89z"/>
		<path class="st1" d="M190.9,125.3c0.1-8.6,4.4-14.6,11.5-15.9c3.8-0.7,7,0.3,9.3,3.5c2.3,3.3,3.4,7.3,1.9,10.9
			c-1.6,3.7-9.7,3.6-9.7,3.6h-4.4c0,0-0.2,1.7-0.1,2.3c0.3,2.9,3.1,4.6,6.4,4.2c1.7-0.2,3.2-1,4.4-2.3c1.3-1.4,2.4-3.6,4.7-1.3
			c1.9,2,2.6,4.1,0.9,6.7c-4,6.4-15.9,6.7-20.9,0.4C192,133.9,190.7,129.8,190.9,125.3L190.9,125.3z M201.3,121.4
			c1.7-0.3,4.3,0.5,5.2-1.9c0.5-1.3-1.1-2.3-2.5-2.4c-2.2-0.1-3.8,1-4.6,3C198.7,121.5,199.7,121.3,201.3,121.4z"/>
		<path class="st2" d="M237.3,67.9c0.1,4.9-5.5,12.1-10,13c-1.5,0.3-2.4,0-2.1-1.6c0.9-4.7,1.4-9.5,4.1-13.6c1.2-1.8,2.5-3.8,5.1-3
			C236.8,63.4,236.9,65.8,237.3,67.9L237.3,67.9z"/>
		<path class="st2" d="M52.7,154.7c0-1.5,0.1-2.8,0.2-4.3c0.1-5.5,0.8-6.3,5.4-7.4c6.4-1.5,7-3.5,4.7-9.5c-0.7-1.7-1.5-3.4-2-5.1
			c-1.3-4.6-2.8-7.8-8.7-4.7c-3,1.6-6.2,0-7.8-3.5c-1.7-3.8,0-8.7,3.7-10.8c7.2-4.1,17-1,21,6.6c7.8,15.1,1.5,38.6-12.8,47.7
			c-1,0.7-2.2,2-3.5,1.1c-1.1-0.8-0.3-2.1-0.3-3.3c0.1-2.2,0.1-4.3,0.1-6.5l0-0.2L52.7,154.7z"/>
		<path class="st2" d="M106,148.6c-0.3,2.6,0.2,6.4-4,6.5c-3.1,0.1-3-3.2-2.8-5.3c0.2-2.8,0.2-6.7,4.1-6.8
			C106.3,142.8,105.9,146.1,106,148.6z"/>
		<path class="st2" d="M255.8,119.8c0.2-2.6,0.2-5.8,3.5-5.5c3.4,0.3,3.1,3.7,3.3,6.3c0.1,2.4-0.4,5.3-3.2,5.2
			C255.9,125.6,256.1,122.2,255.8,119.8z"/>
		<path class="st2" d="M201.2,121.5c-1.6-0.1-2.4-0.1-1.8-1.4c0.8-2,2.4-3.1,4.6-3c1.4,0.1,3,1,2.5,2.4
			C205.5,121.8,203.1,121.5,201.2,121.5z"/>
	</g>
</g>
</svg>
