<?xml version="1.0" encoding="UTF-8"?><svg id="Layer_2" xmlns="http://www.w3.org/2000/svg" viewBox="0 0 295.527 221.26"><g id="Layer_1-2"><g><path d="M184.092,.009c20.109-.208,42.006,3.138,62.454,13.21,28.519,14.048,44.729,36.981,48.311,68.573,3.697,32.605-8.24,60.553-27.285,85.808-20.7,27.449-49,43.23-82.519,49.23-34.263,6.132-68.593,6.537-102.488-2.865-24.596-6.822-46.594-18.282-62.587-38.785-25.535-32.735-27.834-73.185,.342-107.795,15.611-19.176,35.689-32.227,57.776-42.575C111.863,8.989,150.399-.238,184.092,.009Zm2.496,115.601c.186-13.845,1.265-14.727,15.025-12.281,.163,.029,.33,.068,.481,.134,3.182,1.384,4.629-.442,5.607-3.059,1.112-2.975-.617-4.259-3.074-5.172-4.257-1.581-8.699-2.169-13.178-2.59-1.894-.178-3.731-.314-3.547-3.014,.284-4.178-2.792-4.193-5.674-4.532-3.64-.429-3.453,2.186-3.707,4.481-.259,2.342-1.014,4.438-3.823,4.225-3.345-.253-1.732-3.064-1.88-4.688-.469-5.13-2-6.49-6.908-5.943-5.343,.595-4.319,4.498-3.59,7.507,1.115,4.603-.457,6.2-4.891,6.88-7.061,1.083-13.991,3.008-21.049,4.116-8.888,1.395-17.873,2.466-26.69-.492-4.977-1.67-9.035-4.56-9.786-10.205-.781-5.873,3.151-8.788,7.793-10.828,2.562-1.126,3.387-2.723,3.138-5.429-.41-4.468-.705-8.963-.706-13.447,0-3.724-1.871-5.093-5.226-5.087-8.678,.016-16.421,2.771-22.771,8.667-3.178,2.951-5.407,6.734-6.179,11.186-2.933,16.907,6.388,32.782,22.704,38.092,16.471,5.361,32.776,4.227,48.853-1.929,4.039-1.546,8.182-2.818,12.231-4.337,2.693-1.011,4.349-1.101,4.331,2.637-.017,3.641,.531,7.288,.888,10.926,1.365,13.907,2.724,27.838,8.228,40.889,3.166,7.505,7.573,14.083,15.375,17.626,2.105,.956,4.172,1.422,5.915-.619,2.706-3.169,5.29-6.383,6.433-10.559,.767-2.8,.377-4.218-2.849-4.836-10.839-2.074-16.802-9.469-20.107-19.403-2.701-8.118-3.171-16.63-4.015-25.061-.397-3.97-.608-7.958-.898-11.938-.143-1.956,.539-3.289,2.71-3.317,2.42-.032,1.909,1.836,1.937,3.229,.104,5.16-.035,10.331,.248,15.48,.442,8.063,2.506,15.736,6.299,22.908,5.719,10.814,15.421,14.6,26.891,15.061,3.611,.145,5.774-3.757,5.884-9.374,.095-4.876-3.351-3.062-5.608-3.025-11.747,.192-18.252-4.152-22.504-15.183-2.205-5.721-2.357-11.691-2.311-17.696ZM116.652,61.679c.302,7.973,5.647,16.626,15.832,22.123,5.86,3.162,9.043,2.23,12.625-3.211,2.098-3.187,3.895-6.573,5.794-9.889,1.318-2.302,1.277-4.224-1.096-6.059-2.851-2.205-4.353-5.409-5.251-8.867-1.594-6.139,2.209-10.231,8.378-9.136,3.909,.694,7.127,2.667,10.158,5.062,8.394,6.632,15.236,14.881,23.043,22.123,7.752,7.19,15.9,13.758,26.838,15.358,2.421,.354,2.794,1.762,2.878,3.818,.266,6.479,.428,12.977,1.072,19.423,1.238,12.398,2.352,24.862,7.825,36.357,1.22,2.563,2.143,5.292,6.211,3.325,3.581-1.732,4.675-3.624,2.89-7.34-7.769-16.178-8.677-33.62-9.292-51.125-.11-3.138,.761-4.715,3.962-5.668,10.67-3.177,15.807-11.001,17.093-21.671,.665-5.519-2.452-11.175-7.071-13.209-4.574-2.015-9.905-.522-13.926,3.87-4.333,4.732-6.06,10.643-7.409,16.672-1.92,8.583-2.654,8.949-10.381,4.366-.855-.507-1.631-1.145-2.443-1.724-9.501-6.778-16.272-16.121-23.499-25.033-4.836-5.963-9.865-11.763-16.274-16.089-7.274-4.911-15.013-8.958-24.185-7.453-14.052,2.305-23.49,14.563-23.774,33.978ZM37.833,163.256c.039,.003,.078,.007,.117,.01,0,3.823,.127,7.651-.042,11.466-.122,2.753,1.165,3.791,3.672,4.287,16.034,3.168,29.525-2.547,37.782-16.684,7.656-13.109,8.659-27.43,5.688-41.961-3.726-18.225-16.963-27.823-35.372-26.361-11.114,.883-20.02,7.897-22.952,18.412-2.712,9.725-.035,21.993,9.597,26.995,2.303,1.197,2.622,3.093,2.469,5.435-.401,6.128-.648,12.267-.956,18.401Zm87.021-22.286c.398-1.87-.547-4.844,2.574-4.993,2.696-.129,2.567,2.712,2.836,4.545,.699,4.76,.907,9.598,1.732,14.332,1.54,8.835,4.62,16.621,14.059,20.171,4.544,1.709,7.685,.581,10.295-3.187,1.788-2.582,2.354-4.074-1.915-4.684-8.106-1.159-12.043-5.485-13.842-13.554-1.701-7.629-.989-15.607-3.457-23.113-2.096-6.372-7.281-7.899-12.164-3.374-1.464,1.356-2.154,2.491-4.298,.798-1.719-1.357-4.321-1.26-6.077,.211-1.621,1.357-.465,3.399-.195,5.148,1.342,8.689,3.459,17.273,3.413,26.15-.026,5.104,1.139,5.683,5.863,3.806,2.686-1.067,2.694-3.185,2.77-5.275,.205-5.671-.764-11.259-1.595-16.982Zm-11.198,5.767c-.547-3.088-.402-6.454-1.773-9.567-3.774-8.571-12.201-9.727-18.105-2.471-5.545,6.816-6.367,21.577-1.606,28.824,4.638,7.06,13.094,6.924,17.468-.332,3.011-4.996,3.403-10.666,4.016-16.454Zm50.086-5.846c-.551-6.775-.74-13.088-2.014-19.296-.699-3.405-2.709-4.811-6.135-4.019-3.712,.858-2.726,3.377-2.157,5.887,1.472,6.484,2.745,13.008,2.588,19.708-.035,1.485,.036,3.242-1.985,3.467-1.904,.212-2.463-1.396-2.933-2.828-.362-1.101-.637-2.247-.797-3.394-.828-5.918-1.712-11.832-2.354-17.772-.291-2.699-1.705-3.477-4.016-3.014-1.921,.385-4.952-.253-4.637,3.11,.864,9.243,1.376,18.576,4.656,27.399,1.655,4.452,4.635,7.294,9.809,6.72,4.917-.545,8.142-3.52,9.068-8.531,.48-2.602,.651-5.261,.908-7.438Zm106.135-18.559c.047-5.396-.627-10.167-3.261-14.395-4.428-7.108-13.174-7.431-17.749-.752-4.839,7.065-3.903,20.958,1.833,27.206,5.874,6.398,15.199,4.495,17.921-3.711,.945-2.849,1.485-5.804,1.255-8.347Zm-34.65-33.396c-2.603,.005-4.384,.926-4.32,4.046,.088,4.319-.184,8.655,.081,12.959,.839,13.619,2.254,27.149,8.132,39.742,1.268,2.716,2.668,5.41,5.121,7.272,3.54,2.688,5.842-.285,8.27-2.074,2.811-2.071,.644-3.648-.742-5.26-5.426-6.314-8.869-13.481-10.205-21.793-1.611-10.029-1.795-20.158-2.727-30.232-.212-2.288,.136-4.982-3.61-4.661Zm-44.344,36.265c-.18,4.509,1.127,8.587,3.923,12.082,5.068,6.336,16.925,6.039,20.935-.361,1.634-2.608,1.002-4.725-.921-6.729-2.296-2.392-3.388-.145-4.707,1.252-1.187,1.257-2.686,2.019-4.363,2.253-3.309,.462-6.096-1.239-6.418-4.155-.361-3.27,2.965-1.173,4.56-1.681,3.409-1.085,7.985-.486,9.632-4.221,1.572-3.567,.441-7.618-1.874-10.89-2.226-3.148-5.495-4.172-9.264-3.483-7.08,1.295-11.446,7.366-11.502,15.934Z" fill="#ec2c70"/><path d="M186.591,115.61c-.05,6.006,.103,11.975,2.308,17.697,4.251,11.031,10.757,15.375,22.504,15.183,2.257-.037,5.703-1.851,5.608,3.025-.11,5.616-2.273,9.519-5.884,9.374-11.469-.461-21.171-4.247-26.891-15.061-3.793-7.172-5.857-14.845-6.299-22.908-.282-5.149-.144-10.32-.248-15.48-.028-1.393,.483-3.261-1.937-3.229-2.171,.029-2.853,1.361-2.71,3.317,.29,3.98,.5,7.969,.898,11.938,.844,8.431,1.314,16.943,4.015,25.061,3.305,9.934,9.268,17.329,20.107,19.403,3.227,.618,3.616,2.036,2.849,4.836-1.143,4.176-3.727,7.391-6.433,10.559-1.743,2.041-3.811,1.574-5.915,.619-7.802-3.543-12.209-10.121-15.375-17.626-5.505-13.051-6.863-26.982-8.228-40.889-.357-3.639-.904-7.285-.888-10.926,.017-3.737-1.638-3.647-4.331-2.637-4.049,1.52-8.193,2.791-12.231,4.337-16.077,6.156-32.382,7.29-48.853,1.929-16.316-5.31-25.637-21.185-22.704-38.092,.772-4.452,3.001-8.235,6.179-11.186,6.351-5.896,14.093-8.651,22.771-8.667,3.354-.006,5.225,1.363,5.226,5.087,0,4.484,.296,8.979,.706,13.447,.248,2.706-.577,4.303-3.138,5.429-4.642,2.04-8.574,4.955-7.793,10.828,.751,5.645,4.808,8.535,9.786,10.205,8.817,2.958,17.802,1.887,26.69,.492,7.058-1.108,13.989-3.033,21.049-4.116,4.434-.68,6.006-2.277,4.891-6.88-.729-3.009-1.754-6.913,3.59-7.507,4.907-.546,6.439,.813,6.908,5.943,.148,1.623-1.465,4.434,1.88,4.688,2.809,.213,3.564-1.883,3.823-4.225,.254-2.295,.067-4.91,3.707-4.481,2.882,.339,5.958,.355,5.674,4.532-.184,2.7,1.653,2.836,3.547,3.014,4.479,.42,8.921,1.008,13.178,2.59,2.457,.913,4.186,2.197,3.074,5.172-.978,2.617-2.425,4.443-5.607,3.059-.151-.066-.318-.105-.481-.134-13.76-2.445-14.839-1.564-15.022,12.281Z" fill="#f6eb4b"/><path d="M116.652,61.679c.283-19.415,9.722-31.673,23.774-33.978,9.172-1.505,16.91,2.542,24.185,7.453,6.409,4.326,11.438,10.126,16.274,16.089,7.227,8.912,13.998,18.254,23.499,25.033,.812,.579,1.588,1.217,2.443,1.724,7.727,4.583,8.461,4.217,10.381-4.366,1.349-6.029,3.076-11.939,7.409-16.672,4.021-4.392,9.352-5.885,13.926-3.87,4.618,2.035,7.736,7.691,7.071,13.209-1.286,10.67-6.424,18.494-17.093,21.671-3.201,.953-4.072,2.53-3.962,5.668,.615,17.505,1.524,34.947,9.292,51.125,1.784,3.716,.691,5.608-2.89,7.34-4.067,1.967-4.991-.762-6.211-3.325-5.473-11.496-6.587-23.96-7.825-36.357-.644-6.446-.806-12.944-1.072-19.423-.084-2.056-.457-3.464-2.878-3.818-10.937-1.6-19.086-8.168-26.838-15.358-7.808-7.242-14.649-15.491-23.043-22.123-3.031-2.395-6.249-4.368-10.158-5.062-6.169-1.095-9.972,2.997-8.378,9.136,.898,3.458,2.4,6.662,5.251,8.867,2.372,1.835,2.414,3.757,1.096,6.059-1.899,3.316-3.696,6.702-5.794,9.889-3.582,5.442-6.766,6.374-12.625,3.211-10.186-5.497-15.531-14.15-15.832-22.123Zm120.651,6.16c-.386-2.101-.457-4.52-2.961-5.262-2.579-.764-3.927,1.218-5.096,3.017-2.683,4.129-3.225,8.947-4.094,13.634-.297,1.603,.674,1.93,2.128,1.639,4.552-.909,10.144-8.126,10.024-13.028Z" fill="#f6eb4b"/><path d="M37.833,163.256c.308-6.134,.555-12.273,.956-18.401,.153-2.342-.165-4.239-2.469-5.435-9.631-5.003-12.309-17.271-9.597-26.995,2.932-10.515,11.839-17.529,22.952-18.412,18.41-1.463,31.646,8.136,35.372,26.361,2.971,14.531,1.969,28.852-5.688,41.961-8.257,14.137-21.748,19.853-37.782,16.684-2.507-.495-3.794-1.533-3.672-4.287,.169-3.815,.042-7.643,.042-11.466-.039-.003-.078-.007-.117-.01Zm15.03-8.35c-.104,0-.207,0-.311,0,0,2.161,.044,4.323-.018,6.483-.032,1.126-.813,2.504,.262,3.275,1.356,.972,2.488-.395,3.536-1.058,14.298-9.058,20.617-32.591,12.841-47.667-3.929-7.618-13.8-10.725-20.951-6.595-3.693,2.133-5.426,7.029-3.719,10.803,1.55,3.427,4.743,5.05,7.777,3.456,5.889-3.094,7.396,.093,8.658,4.725,.478,1.754,1.316,3.408,1.971,5.114,2.309,6.019,1.701,8.037-4.672,9.546-4.557,1.079-6.032,3.113-5.408,7.428,.212,1.467,.034,2.991,.034,4.488Z" fill="#f6eb4b"/><path d="M124.855,140.97c.831,5.722,1.8,11.31,1.595,16.982-.076,2.091-.083,4.208-2.77,5.275-4.724,1.876-5.89,1.298-5.863-3.806,.046-8.877-2.071-17.46-3.413-26.15-.27-1.749-1.427-3.791,.195-5.148,1.756-1.47,4.358-1.567,6.077-.211,2.145,1.693,2.835,.558,4.298-.798,4.882-4.524,10.068-2.998,12.164,3.374,2.469,7.506,1.756,15.484,3.457,23.113,1.799,8.068,5.736,12.394,13.842,13.554,4.269,.61,3.703,2.102,1.915,4.684-2.61,3.768-5.751,4.896-10.295,3.187-9.439-3.549-12.519-11.335-14.059-20.171-.825-4.734-1.033-9.572-1.732-14.332-.269-1.833-.14-4.674-2.836-4.545-3.121,.149-2.176,3.123-2.574,4.993Z" fill="#f6eb4b"/><path d="M113.657,146.737c-.613,5.788-1.005,11.458-4.016,16.454-4.374,7.256-12.829,7.392-17.468,.332-4.761-7.247-3.939-22.008,1.606-28.824,5.903-7.256,14.331-6.1,18.105,2.471,1.371,3.113,1.226,6.479,1.773,9.567Zm-7.702,1.766c-.094-2.523,.358-5.775-2.718-5.678-3.878,.123-3.855,3.996-4.076,6.841-.169,2.169-.295,5.412,2.823,5.342,4.139-.093,3.637-3.886,3.971-6.505Z" fill="#f6eb4b"/><path d="M163.743,140.891c-.257,2.177-.427,4.836-.908,7.438-.925,5.012-4.151,7.986-9.068,8.531-5.174,.573-8.154-2.269-9.809-6.72-3.28-8.823-3.792-18.156-4.656-27.399-.314-3.364,2.716-2.725,4.637-3.11,2.311-.463,3.724,.315,4.016,3.014,.641,5.94,1.526,11.853,2.354,17.772,.16,1.147,.436,2.293,.797,3.394,.47,1.431,1.029,3.04,2.933,2.828,2.02-.225,1.95-1.982,1.985-3.467,.158-6.7-1.116-13.224-2.588-19.708-.57-2.509-1.555-5.029,2.157-5.887,3.426-.792,5.436,.614,6.135,4.019,1.274,6.207,1.463,12.521,2.014,19.296Z" fill="#f6eb4b"/><path d="M269.877,122.332c.23,2.543-.31,5.498-1.255,8.347-2.723,8.206-12.047,10.109-17.921,3.711-5.736-6.248-6.672-20.141-1.833-27.206,4.575-6.679,13.32-6.355,17.749,.752,2.634,4.228,3.308,8.999,3.261,14.395Zm-14.127-2.647c.369,2.438,.164,5.818,3.555,5.968,2.806,.124,3.363-2.77,3.239-5.154-.132-2.541,.096-5.967-3.259-6.273-3.323-.303-3.357,2.848-3.535,5.459Z" fill="#f6eb4b"/><path d="M235.228,88.937c3.746-.321,3.398,2.372,3.61,4.661,.932,10.074,1.116,20.203,2.727,30.232,1.335,8.311,4.778,15.478,10.205,21.793,1.385,1.612,3.553,3.189,.742,5.26-2.428,1.788-4.73,4.762-8.27,2.074-2.453-1.863-3.853-4.556-5.121-7.272-5.878-12.593-7.293-26.123-8.132-39.742-.265-4.305,.007-8.64-.081-12.959-.063-3.12,1.717-4.041,4.32-4.046Z" fill="#f6eb4b"/><path d="M190.887,125.201c.053-8.567,4.419-14.638,11.499-15.932,3.769-.689,7.038,.336,9.264,3.483,2.315,3.273,3.446,7.323,1.874,10.89-1.646,3.736-6.223,3.136-9.632,4.221-1.595,.508-4.921-1.589-4.56,1.681,.322,2.916,3.11,4.617,6.418,4.155,1.678-.234,3.177-.996,4.363-2.253,1.318-1.397,2.411-3.644,4.707-1.252,1.924,2.004,2.555,4.121,.921,6.729-4.01,6.4-15.868,6.697-20.935,.361-2.796-3.496-4.103-7.573-3.92-12.083Zm10.396-3.408c1.381-.889,4.211,.009,5.112-2.361,.512-1.349-1.071-2.287-2.503-2.36-2.197-.113-3.822,.952-4.646,2.975-.564,1.385,.444,1.675,2.037,1.746Z" fill="#f6eb4b"/><path d="M237.303,67.839c.12,4.902-5.472,12.119-10.024,13.028-1.455,.29-2.426-.036-2.128-1.639,.869-4.688,1.411-9.505,4.094-13.634,1.169-1.799,2.517-3.781,5.096-3.017,2.505,.742,2.576,3.161,2.961,5.262Z" fill="#ec2c70"/><path d="M52.863,154.907c0-1.498,.179-3.021-.034-4.488-.625-4.314,.85-6.349,5.408-7.428,6.373-1.509,6.981-3.527,4.672-9.546-.655-1.707-1.493-3.361-1.971-5.114-1.262-4.632-2.769-7.819-8.658-4.725-3.034,1.594-6.227-.028-7.777-3.456-1.707-3.774,.026-8.67,3.719-10.803,7.152-4.13,17.022-1.024,20.951,6.595,7.776,15.076,1.457,38.609-12.841,47.667-1.047,.664-2.18,2.031-3.536,1.058-1.075-.771-.294-2.149-.262-3.275,.061-2.159,.018-4.322,.018-6.483,.104,0,.207,0,.311,0Z" fill="#ec2c70"/><path d="M105.955,148.503c-.335,2.619,.167,6.412-3.971,6.505-3.118,.07-2.991-3.174-2.823-5.342,.221-2.845,.198-6.718,4.076-6.841,3.076-.097,2.624,3.154,2.718,5.678Z" fill="#ec2c70"/><path d="M255.751,119.685c.178-2.61,.213-5.761,3.535-5.459,3.355,.306,3.127,3.732,3.259,6.273,.124,2.383-.433,5.278-3.239,5.154-3.391-.15-3.186-3.53-3.555-5.968Z" fill="#ec2c70"/><path d="M201.283,121.793c-1.593-.072-2.601-.362-2.037-1.746,.824-2.023,2.449-3.088,4.646-2.975,1.432,.073,3.015,1.011,2.503,2.36-.901,2.371-3.731,1.472-5.112,2.361Z" fill="#ec2c70"/></g></g></svg>